<?xml version="1.0" encoding="utf-8"?>
<!-- Generator: Adobe Illustrator 19.0.0, SVG Export Plug-In . SVG Version: 6.00 Build 0)  -->
<svg version="1.1" xmlns="http://www.w3.org/2000/svg" xmlns:xlink="http://www.w3.org/1999/xlink" x="0px" y="0px"
	 viewBox="0 0 500 571.2" style="enable-background:new 0 0 500 571.2;" xml:space="preserve">
<style type="text/css">
	.st0{display:none;}
	.st1{display:inline;}
	.st2{fill:none;stroke:#00A651;stroke-width:0.1;}
	.st3{display:none;opacity:0.3;}
	.st4{display:inline;fill:#00A651;}
	.st5{display:inline;fill:#D13C95;}
	.st6{display:inline;fill:#9D4098;}
	.st7{display:inline;fill:#7752A1;}
	.st8{fill:#B057A2;}
</style>
<g id="Guides" class="st0">
	<g id="XMLID_882_" class="st1">
		<line id="XMLID_962_" class="st2" x1="750" y1="-314.4" x2="750" y2="885.6"/>
		<line id="XMLID_961_" class="st2" x1="700" y1="-314.4" x2="700" y2="885.6"/>
		<line id="XMLID_960_" class="st2" x1="700" y1="-314.4" x2="700" y2="885.6"/>
		<line id="XMLID_959_" class="st2" x1="650" y1="-314.4" x2="650" y2="885.6"/>
		<line id="XMLID_958_" class="st2" x1="650" y1="-314.4" x2="650" y2="885.6"/>
		<line id="XMLID_957_" class="st2" x1="600" y1="-314.4" x2="600" y2="885.6"/>
		<line id="XMLID_956_" class="st2" x1="600" y1="-314.4" x2="600" y2="885.6"/>
		<line id="XMLID_955_" class="st2" x1="550" y1="-314.4" x2="550" y2="885.6"/>
		<line id="XMLID_954_" class="st2" x1="550" y1="-314.4" x2="550" y2="885.6"/>
		<line id="XMLID_953_" class="st2" x1="500" y1="-314.4" x2="500" y2="885.6"/>
		<line id="XMLID_952_" class="st2" x1="500" y1="-314.4" x2="500" y2="885.6"/>
		<line id="XMLID_951_" class="st2" x1="450" y1="-314.4" x2="450" y2="885.6"/>
		<line id="XMLID_950_" class="st2" x1="450" y1="-314.4" x2="450" y2="885.6"/>
		<line id="XMLID_949_" class="st2" x1="400" y1="-314.4" x2="400" y2="885.6"/>
		<line id="XMLID_948_" class="st2" x1="400" y1="-314.4" x2="400" y2="885.6"/>
		<line id="XMLID_947_" class="st2" x1="350" y1="-314.4" x2="350" y2="885.6"/>
		<line id="XMLID_946_" class="st2" x1="350" y1="-314.4" x2="350" y2="885.6"/>
		<line id="XMLID_945_" class="st2" x1="300" y1="-314.4" x2="300" y2="885.6"/>
		<line id="XMLID_944_" class="st2" x1="300" y1="-314.4" x2="300" y2="885.6"/>
		<line id="XMLID_943_" class="st2" x1="250" y1="-314.4" x2="250" y2="885.6"/>
		<line id="XMLID_942_" class="st2" x1="250" y1="-314.4" x2="250" y2="885.6"/>
		<line id="XMLID_941_" class="st2" x1="200" y1="-314.4" x2="200" y2="885.6"/>
		<line id="XMLID_940_" class="st2" x1="200" y1="-314.4" x2="200" y2="885.6"/>
		<line id="XMLID_939_" class="st2" x1="150" y1="-314.4" x2="150" y2="885.6"/>
		<line id="XMLID_938_" class="st2" x1="150" y1="-314.4" x2="150" y2="885.6"/>
		<line id="XMLID_937_" class="st2" x1="100" y1="-314.4" x2="100" y2="885.6"/>
		<line id="XMLID_936_" class="st2" x1="100" y1="-314.4" x2="100" y2="885.6"/>
		<line id="XMLID_935_" class="st2" x1="50" y1="-314.4" x2="50" y2="885.6"/>
		<line id="XMLID_934_" class="st2" x1="50" y1="-314.4" x2="50" y2="885.6"/>
		<line id="XMLID_933_" class="st2" x1="0" y1="-314.4" x2="0" y2="885.6"/>
		<line id="XMLID_932_" class="st2" x1="0" y1="-314.4" x2="0" y2="885.6"/>
		<line id="XMLID_931_" class="st2" x1="-50" y1="-314.4" x2="-50" y2="885.6"/>
		<line id="XMLID_930_" class="st2" x1="-50" y1="-314.4" x2="-50" y2="885.6"/>
		<line id="XMLID_929_" class="st2" x1="-100" y1="-314.4" x2="-100" y2="885.6"/>
		<line id="XMLID_928_" class="st2" x1="-100" y1="-314.4" x2="-100" y2="885.6"/>
		<line id="XMLID_927_" class="st2" x1="-150" y1="-314.4" x2="-150" y2="885.6"/>
		<line id="XMLID_926_" class="st2" x1="-150" y1="-314.4" x2="-150" y2="885.6"/>
		<line id="XMLID_925_" class="st2" x1="-200" y1="-314.4" x2="-200" y2="885.6"/>
		<line id="XMLID_924_" class="st2" x1="-200" y1="-314.4" x2="-200" y2="885.6"/>
		<line id="XMLID_923_" class="st2" x1="-250" y1="-314.4" x2="-250" y2="885.6"/>
		<line id="XMLID_922_" class="st2" x1="-350" y1="785.6" x2="850" y2="785.6"/>
		<line id="XMLID_921_" class="st2" x1="-350" y1="735.6" x2="850" y2="735.6"/>
		<line id="XMLID_920_" class="st2" x1="-350" y1="735.6" x2="850" y2="735.6"/>
		<line id="XMLID_919_" class="st2" x1="-350" y1="685.6" x2="850" y2="685.6"/>
		<line id="XMLID_918_" class="st2" x1="-350" y1="685.6" x2="850" y2="685.6"/>
		<line id="XMLID_917_" class="st2" x1="-350" y1="635.6" x2="850" y2="635.6"/>
		<line id="XMLID_916_" class="st2" x1="-350" y1="635.6" x2="850" y2="635.6"/>
		<line id="XMLID_915_" class="st2" x1="-350" y1="585.6" x2="850" y2="585.6"/>
		<line id="XMLID_914_" class="st2" x1="-350" y1="585.6" x2="850" y2="585.6"/>
		<line id="XMLID_913_" class="st2" x1="-350" y1="535.6" x2="850" y2="535.6"/>
		<line id="XMLID_912_" class="st2" x1="-350" y1="535.6" x2="850" y2="535.6"/>
		<line id="XMLID_911_" class="st2" x1="-350" y1="485.6" x2="850" y2="485.6"/>
		<line id="XMLID_910_" class="st2" x1="-350" y1="485.6" x2="850" y2="485.6"/>
		<line id="XMLID_909_" class="st2" x1="-350" y1="435.6" x2="850" y2="435.6"/>
		<line id="XMLID_908_" class="st2" x1="-350" y1="435.6" x2="850" y2="435.6"/>
		<line id="XMLID_907_" class="st2" x1="-350" y1="385.6" x2="850" y2="385.6"/>
		<line id="XMLID_906_" class="st2" x1="-350" y1="385.6" x2="850" y2="385.6"/>
		<line id="XMLID_905_" class="st2" x1="-350" y1="335.6" x2="850" y2="335.6"/>
		<line id="XMLID_904_" class="st2" x1="-350" y1="335.6" x2="850" y2="335.6"/>
		<line id="XMLID_903_" class="st2" x1="-350" y1="285.6" x2="850" y2="285.6"/>
		<line id="XMLID_902_" class="st2" x1="-350" y1="285.6" x2="850" y2="285.6"/>
		<line id="XMLID_901_" class="st2" x1="-350" y1="235.6" x2="850" y2="235.6"/>
		<line id="XMLID_900_" class="st2" x1="-350" y1="235.6" x2="850" y2="235.6"/>
		<line id="XMLID_899_" class="st2" x1="-350" y1="185.6" x2="850" y2="185.6"/>
		<line id="XMLID_898_" class="st2" x1="-350" y1="185.6" x2="850" y2="185.6"/>
		<line id="XMLID_897_" class="st2" x1="-350" y1="135.6" x2="850" y2="135.6"/>
		<line id="XMLID_896_" class="st2" x1="-350" y1="135.6" x2="850" y2="135.6"/>
		<line id="XMLID_895_" class="st2" x1="-350" y1="85.6" x2="850" y2="85.6"/>
		<line id="XMLID_894_" class="st2" x1="-350" y1="85.6" x2="850" y2="85.6"/>
		<line id="XMLID_893_" class="st2" x1="-350" y1="35.6" x2="850" y2="35.6"/>
		<line id="XMLID_892_" class="st2" x1="-350" y1="35.6" x2="850" y2="35.6"/>
		<line id="XMLID_891_" class="st2" x1="-350" y1="-14.4" x2="850" y2="-14.4"/>
		<line id="XMLID_890_" class="st2" x1="-350" y1="-14.4" x2="850" y2="-14.4"/>
		<line id="XMLID_889_" class="st2" x1="-350" y1="-64.4" x2="850" y2="-64.4"/>
		<line id="XMLID_888_" class="st2" x1="-350" y1="-64.4" x2="850" y2="-64.4"/>
		<line id="XMLID_887_" class="st2" x1="-350" y1="-114.4" x2="850" y2="-114.4"/>
		<line id="XMLID_886_" class="st2" x1="-350" y1="-114.4" x2="850" y2="-114.4"/>
		<line id="XMLID_885_" class="st2" x1="-350" y1="-164.4" x2="850" y2="-164.4"/>
		<line id="XMLID_884_" class="st2" x1="-350" y1="-164.4" x2="850" y2="-164.4"/>
		<line id="XMLID_883_" class="st2" x1="-350" y1="-214.4" x2="850" y2="-214.4"/>
	</g>
	<g id="XMLID_1_" class="st1">
		<line id="XMLID_81_" class="st2" x1="-19.6" y1="-447.4" x2="1019.6" y2="152.6"/>
		<line id="XMLID_80_" class="st2" x1="-44.6" y1="-404.1" x2="994.6" y2="195.9"/>
		<line id="XMLID_79_" class="st2" x1="-44.6" y1="-404.1" x2="994.6" y2="195.9"/>
		<line id="XMLID_78_" class="st2" x1="-69.6" y1="-360.8" x2="969.6" y2="239.2"/>
		<line id="XMLID_77_" class="st2" x1="-69.6" y1="-360.8" x2="969.6" y2="239.2"/>
		<line id="XMLID_76_" class="st2" x1="-94.6" y1="-317.5" x2="944.6" y2="282.5"/>
		<line id="XMLID_75_" class="st2" x1="-94.6" y1="-317.5" x2="944.6" y2="282.5"/>
		<line id="XMLID_74_" class="st2" x1="-119.6" y1="-274.2" x2="919.6" y2="325.8"/>
		<line id="XMLID_73_" class="st2" x1="-119.6" y1="-274.2" x2="919.6" y2="325.8"/>
		<line id="XMLID_72_" class="st2" x1="-144.6" y1="-230.9" x2="894.6" y2="369.1"/>
		<line id="XMLID_71_" class="st2" x1="-144.6" y1="-230.9" x2="894.6" y2="369.1"/>
		<line id="XMLID_70_" class="st2" x1="-169.6" y1="-187.6" x2="869.6" y2="412.4"/>
		<line id="XMLID_69_" class="st2" x1="-169.6" y1="-187.6" x2="869.6" y2="412.4"/>
		<line id="XMLID_68_" class="st2" x1="-194.6" y1="-144.3" x2="844.6" y2="455.7"/>
		<line id="XMLID_67_" class="st2" x1="-194.6" y1="-144.3" x2="844.6" y2="455.7"/>
		<line id="XMLID_66_" class="st2" x1="-219.6" y1="-101" x2="819.6" y2="499"/>
		<line id="XMLID_65_" class="st2" x1="-219.6" y1="-101" x2="819.6" y2="499"/>
		<line id="XMLID_64_" class="st2" x1="-244.6" y1="-57.7" x2="794.6" y2="542.3"/>
		<line id="XMLID_63_" class="st2" x1="-244.6" y1="-57.7" x2="794.6" y2="542.3"/>
		<line id="XMLID_62_" class="st2" x1="-269.6" y1="-14.4" x2="769.6" y2="585.6"/>
		<line id="XMLID_61_" class="st2" x1="-269.6" y1="-14.4" x2="769.6" y2="585.6"/>
		<line id="XMLID_60_" class="st2" x1="-294.6" y1="28.9" x2="744.6" y2="628.9"/>
		<line id="XMLID_59_" class="st2" x1="-294.6" y1="28.9" x2="744.6" y2="628.9"/>
		<line id="XMLID_58_" class="st2" x1="-319.6" y1="72.2" x2="719.6" y2="672.2"/>
		<line id="XMLID_57_" class="st2" x1="-319.6" y1="72.2" x2="719.6" y2="672.2"/>
		<line id="XMLID_56_" class="st2" x1="-344.6" y1="115.5" x2="694.6" y2="715.5"/>
		<line id="XMLID_55_" class="st2" x1="-344.6" y1="115.5" x2="694.6" y2="715.5"/>
		<line id="XMLID_54_" class="st2" x1="-369.6" y1="158.8" x2="669.6" y2="758.8"/>
		<line id="XMLID_53_" class="st2" x1="-369.6" y1="158.8" x2="669.6" y2="758.8"/>
		<line id="XMLID_52_" class="st2" x1="-394.6" y1="202.1" x2="644.6" y2="802.1"/>
		<line id="XMLID_51_" class="st2" x1="-394.6" y1="202.1" x2="644.6" y2="802.1"/>
		<line id="XMLID_50_" class="st2" x1="-419.6" y1="245.4" x2="619.6" y2="845.4"/>
		<line id="XMLID_49_" class="st2" x1="-419.6" y1="245.4" x2="619.6" y2="845.4"/>
		<line id="XMLID_48_" class="st2" x1="-444.6" y1="288.7" x2="594.6" y2="888.7"/>
		<line id="XMLID_47_" class="st2" x1="-444.6" y1="288.7" x2="594.6" y2="888.7"/>
		<line id="XMLID_46_" class="st2" x1="-469.6" y1="332" x2="569.6" y2="932"/>
		<line id="XMLID_45_" class="st2" x1="-469.6" y1="332" x2="569.6" y2="932"/>
		<line id="XMLID_44_" class="st2" x1="-494.6" y1="375.3" x2="544.6" y2="975.3"/>
		<line id="XMLID_43_" class="st2" x1="-494.6" y1="375.3" x2="544.6" y2="975.3"/>
		<line id="XMLID_42_" class="st2" x1="-519.6" y1="418.6" x2="519.6" y2="1018.6"/>
		<line id="XMLID_41_" class="st2" x1="383" y1="1055.2" x2="983" y2="16"/>
		<line id="XMLID_40_" class="st2" x1="339.7" y1="1030.2" x2="939.7" y2="-9"/>
		<line id="XMLID_39_" class="st2" x1="339.7" y1="1030.2" x2="939.7" y2="-9"/>
		<line id="XMLID_38_" class="st2" x1="296.4" y1="1005.2" x2="896.4" y2="-34"/>
		<line id="XMLID_37_" class="st2" x1="296.4" y1="1005.2" x2="896.4" y2="-34"/>
		<line id="XMLID_36_" class="st2" x1="253.1" y1="980.2" x2="853.1" y2="-59"/>
		<line id="XMLID_35_" class="st2" x1="253.1" y1="980.2" x2="853.1" y2="-59"/>
		<line id="XMLID_34_" class="st2" x1="209.8" y1="955.2" x2="809.8" y2="-84"/>
		<line id="XMLID_33_" class="st2" x1="209.8" y1="955.2" x2="809.8" y2="-84"/>
		<line id="XMLID_32_" class="st2" x1="166.5" y1="930.2" x2="766.5" y2="-109"/>
		<line id="XMLID_31_" class="st2" x1="166.5" y1="930.2" x2="766.5" y2="-109"/>
		<line id="XMLID_30_" class="st2" x1="123.2" y1="905.2" x2="723.2" y2="-134"/>
		<line id="XMLID_29_" class="st2" x1="123.2" y1="905.2" x2="723.2" y2="-134"/>
		<line id="XMLID_28_" class="st2" x1="79.9" y1="880.2" x2="679.9" y2="-159"/>
		<line id="XMLID_27_" class="st2" x1="79.9" y1="880.2" x2="679.9" y2="-159"/>
		<line id="XMLID_26_" class="st2" x1="36.6" y1="855.2" x2="636.6" y2="-184"/>
		<line id="XMLID_25_" class="st2" x1="36.6" y1="855.2" x2="636.6" y2="-184"/>
		<line id="XMLID_24_" class="st2" x1="-6.7" y1="830.2" x2="593.3" y2="-209"/>
		<line id="XMLID_23_" class="st2" x1="-6.7" y1="830.2" x2="593.3" y2="-209"/>
		<line id="XMLID_22_" class="st2" x1="-50" y1="805.2" x2="550" y2="-234"/>
		<line id="XMLID_21_" class="st2" x1="-50" y1="805.2" x2="550" y2="-234"/>
		<line id="XMLID_20_" class="st2" x1="-93.3" y1="780.2" x2="506.7" y2="-259"/>
		<line id="XMLID_19_" class="st2" x1="-93.3" y1="780.2" x2="506.7" y2="-259"/>
		<line id="XMLID_18_" class="st2" x1="-136.6" y1="755.2" x2="463.4" y2="-284"/>
		<line id="XMLID_17_" class="st2" x1="-136.6" y1="755.2" x2="463.4" y2="-284"/>
		<line id="XMLID_16_" class="st2" x1="-179.9" y1="730.2" x2="420.1" y2="-309"/>
		<line id="XMLID_15_" class="st2" x1="-179.9" y1="730.2" x2="420.1" y2="-309"/>
		<line id="XMLID_14_" class="st2" x1="-223.2" y1="705.2" x2="376.8" y2="-334"/>
		<line id="XMLID_13_" class="st2" x1="-223.2" y1="705.2" x2="376.8" y2="-334"/>
		<line id="XMLID_12_" class="st2" x1="-266.5" y1="680.2" x2="333.5" y2="-359"/>
		<line id="XMLID_11_" class="st2" x1="-266.5" y1="680.2" x2="333.5" y2="-359"/>
		<line id="XMLID_10_" class="st2" x1="-309.8" y1="655.2" x2="290.2" y2="-384"/>
		<line id="XMLID_9_" class="st2" x1="-309.8" y1="655.2" x2="290.2" y2="-384"/>
		<line id="XMLID_8_" class="st2" x1="-353.1" y1="630.2" x2="246.9" y2="-409"/>
		<line id="XMLID_7_" class="st2" x1="-353.1" y1="630.2" x2="246.9" y2="-409"/>
		<line id="XMLID_6_" class="st2" x1="-396.4" y1="605.2" x2="203.6" y2="-434"/>
		<line id="XMLID_5_" class="st2" x1="-396.4" y1="605.2" x2="203.6" y2="-434"/>
		<line id="XMLID_4_" class="st2" x1="-439.7" y1="580.2" x2="160.3" y2="-459"/>
		<line id="XMLID_3_" class="st2" x1="-439.7" y1="580.2" x2="160.3" y2="-459"/>
		<line id="XMLID_2_" class="st2" x1="-483" y1="555.2" x2="117" y2="-484"/>
	</g>
	<g id="XMLID_82_" class="st1">
		<line id="XMLID_162_" class="st2" x1="-519.6" y1="152.6" x2="519.6" y2="-447.4"/>
		<line id="XMLID_161_" class="st2" x1="-494.6" y1="195.9" x2="544.6" y2="-404.1"/>
		<line id="XMLID_160_" class="st2" x1="-494.6" y1="195.9" x2="544.6" y2="-404.1"/>
		<line id="XMLID_159_" class="st2" x1="-469.6" y1="239.2" x2="569.6" y2="-360.8"/>
		<line id="XMLID_158_" class="st2" x1="-469.6" y1="239.2" x2="569.6" y2="-360.8"/>
		<line id="XMLID_157_" class="st2" x1="-444.6" y1="282.5" x2="594.6" y2="-317.5"/>
		<line id="XMLID_156_" class="st2" x1="-444.6" y1="282.5" x2="594.6" y2="-317.5"/>
		<line id="XMLID_155_" class="st2" x1="-419.6" y1="325.8" x2="619.6" y2="-274.2"/>
		<line id="XMLID_154_" class="st2" x1="-419.6" y1="325.8" x2="619.6" y2="-274.2"/>
		<line id="XMLID_153_" class="st2" x1="-394.6" y1="369.1" x2="644.6" y2="-230.9"/>
		<line id="XMLID_152_" class="st2" x1="-394.6" y1="369.1" x2="644.6" y2="-230.9"/>
		<line id="XMLID_151_" class="st2" x1="-369.6" y1="412.4" x2="669.6" y2="-187.6"/>
		<line id="XMLID_150_" class="st2" x1="-369.6" y1="412.4" x2="669.6" y2="-187.6"/>
		<line id="XMLID_149_" class="st2" x1="-344.6" y1="455.7" x2="694.6" y2="-144.3"/>
		<line id="XMLID_148_" class="st2" x1="-344.6" y1="455.7" x2="694.6" y2="-144.3"/>
		<line id="XMLID_147_" class="st2" x1="-319.6" y1="499" x2="719.6" y2="-101"/>
		<line id="XMLID_146_" class="st2" x1="-319.6" y1="499" x2="719.6" y2="-101"/>
		<line id="XMLID_145_" class="st2" x1="-294.6" y1="542.3" x2="744.6" y2="-57.7"/>
		<line id="XMLID_144_" class="st2" x1="-294.6" y1="542.3" x2="744.6" y2="-57.7"/>
		<line id="XMLID_143_" class="st2" x1="-269.6" y1="585.6" x2="769.6" y2="-14.4"/>
		<line id="XMLID_142_" class="st2" x1="-269.6" y1="585.6" x2="769.6" y2="-14.4"/>
		<line id="XMLID_141_" class="st2" x1="-244.6" y1="628.9" x2="794.6" y2="28.9"/>
		<line id="XMLID_140_" class="st2" x1="-244.6" y1="628.9" x2="794.6" y2="28.9"/>
		<line id="XMLID_139_" class="st2" x1="-219.6" y1="672.2" x2="819.6" y2="72.2"/>
		<line id="XMLID_138_" class="st2" x1="-219.6" y1="672.2" x2="819.6" y2="72.2"/>
		<line id="XMLID_137_" class="st2" x1="-194.6" y1="715.5" x2="844.6" y2="115.5"/>
		<line id="XMLID_136_" class="st2" x1="-194.6" y1="715.5" x2="844.6" y2="115.5"/>
		<line id="XMLID_135_" class="st2" x1="-169.6" y1="758.8" x2="869.6" y2="158.8"/>
		<line id="XMLID_134_" class="st2" x1="-169.6" y1="758.8" x2="869.6" y2="158.8"/>
		<line id="XMLID_133_" class="st2" x1="-144.6" y1="802.1" x2="894.6" y2="202.1"/>
		<line id="XMLID_132_" class="st2" x1="-144.6" y1="802.1" x2="894.6" y2="202.1"/>
		<line id="XMLID_131_" class="st2" x1="-119.6" y1="845.4" x2="919.6" y2="245.4"/>
		<line id="XMLID_130_" class="st2" x1="-119.6" y1="845.4" x2="919.6" y2="245.4"/>
		<line id="XMLID_129_" class="st2" x1="-94.6" y1="888.7" x2="944.6" y2="288.7"/>
		<line id="XMLID_128_" class="st2" x1="-94.6" y1="888.7" x2="944.6" y2="288.7"/>
		<line id="XMLID_127_" class="st2" x1="-69.6" y1="932" x2="969.6" y2="332"/>
		<line id="XMLID_126_" class="st2" x1="-69.6" y1="932" x2="969.6" y2="332"/>
		<line id="XMLID_125_" class="st2" x1="-44.6" y1="975.3" x2="994.6" y2="375.3"/>
		<line id="XMLID_124_" class="st2" x1="-44.6" y1="975.3" x2="994.6" y2="375.3"/>
		<line id="XMLID_123_" class="st2" x1="-19.6" y1="1018.6" x2="1019.6" y2="418.6"/>
		<line id="XMLID_122_" class="st2" x1="983" y1="555.2" x2="383" y2="-484"/>
		<line id="XMLID_121_" class="st2" x1="939.7" y1="580.2" x2="339.7" y2="-459"/>
		<line id="XMLID_120_" class="st2" x1="939.7" y1="580.2" x2="339.7" y2="-459"/>
		<line id="XMLID_119_" class="st2" x1="896.4" y1="605.2" x2="296.4" y2="-434"/>
		<line id="XMLID_118_" class="st2" x1="896.4" y1="605.2" x2="296.4" y2="-434"/>
		<line id="XMLID_117_" class="st2" x1="853.1" y1="630.2" x2="253.1" y2="-409"/>
		<line id="XMLID_116_" class="st2" x1="853.1" y1="630.2" x2="253.1" y2="-409"/>
		<line id="XMLID_115_" class="st2" x1="809.8" y1="655.2" x2="209.8" y2="-384"/>
		<line id="XMLID_114_" class="st2" x1="809.8" y1="655.2" x2="209.8" y2="-384"/>
		<line id="XMLID_113_" class="st2" x1="766.5" y1="680.2" x2="166.5" y2="-359"/>
		<line id="XMLID_112_" class="st2" x1="766.5" y1="680.2" x2="166.5" y2="-359"/>
		<line id="XMLID_111_" class="st2" x1="723.2" y1="705.2" x2="123.2" y2="-334"/>
		<line id="XMLID_110_" class="st2" x1="723.2" y1="705.2" x2="123.2" y2="-334"/>
		<line id="XMLID_109_" class="st2" x1="679.9" y1="730.2" x2="79.9" y2="-309"/>
		<line id="XMLID_108_" class="st2" x1="679.9" y1="730.2" x2="79.9" y2="-309"/>
		<line id="XMLID_107_" class="st2" x1="636.6" y1="755.2" x2="36.6" y2="-284"/>
		<line id="XMLID_106_" class="st2" x1="636.6" y1="755.2" x2="36.6" y2="-284"/>
		<line id="XMLID_105_" class="st2" x1="593.3" y1="780.2" x2="-6.7" y2="-259"/>
		<line id="XMLID_104_" class="st2" x1="593.3" y1="780.2" x2="-6.7" y2="-259"/>
		<line id="XMLID_103_" class="st2" x1="550" y1="805.2" x2="-50" y2="-234"/>
		<line id="XMLID_102_" class="st2" x1="550" y1="805.2" x2="-50" y2="-234"/>
		<line id="XMLID_101_" class="st2" x1="506.7" y1="830.2" x2="-93.3" y2="-209"/>
		<line id="XMLID_100_" class="st2" x1="506.7" y1="830.2" x2="-93.3" y2="-209"/>
		<line id="XMLID_99_" class="st2" x1="463.4" y1="855.2" x2="-136.6" y2="-184"/>
		<line id="XMLID_98_" class="st2" x1="463.4" y1="855.2" x2="-136.6" y2="-184"/>
		<line id="XMLID_97_" class="st2" x1="420.1" y1="880.2" x2="-179.9" y2="-159"/>
		<line id="XMLID_96_" class="st2" x1="420.1" y1="880.2" x2="-179.9" y2="-159"/>
		<line id="XMLID_95_" class="st2" x1="376.8" y1="905.2" x2="-223.2" y2="-134"/>
		<line id="XMLID_94_" class="st2" x1="376.8" y1="905.2" x2="-223.2" y2="-134"/>
		<line id="XMLID_93_" class="st2" x1="333.5" y1="930.2" x2="-266.5" y2="-109"/>
		<line id="XMLID_92_" class="st2" x1="333.5" y1="930.2" x2="-266.5" y2="-109"/>
		<line id="XMLID_91_" class="st2" x1="290.2" y1="955.2" x2="-309.8" y2="-84"/>
		<line id="XMLID_90_" class="st2" x1="290.2" y1="955.2" x2="-309.8" y2="-84"/>
		<line id="XMLID_89_" class="st2" x1="246.9" y1="980.2" x2="-353.1" y2="-59"/>
		<line id="XMLID_88_" class="st2" x1="246.9" y1="980.2" x2="-353.1" y2="-59"/>
		<line id="XMLID_87_" class="st2" x1="203.6" y1="1005.2" x2="-396.4" y2="-34"/>
		<line id="XMLID_86_" class="st2" x1="203.6" y1="1005.2" x2="-396.4" y2="-34"/>
		<line id="XMLID_85_" class="st2" x1="160.3" y1="1030.2" x2="-439.7" y2="-9"/>
		<line id="XMLID_84_" class="st2" x1="160.3" y1="1030.2" x2="-439.7" y2="-9"/>
		<line id="XMLID_83_" class="st2" x1="117" y1="1055.2" x2="-483" y2="16"/>
	</g>
</g>
<g id="Template_Horizontal" class="st3">
	<polygon id="XMLID_180_" class="st4" points="538.7,285.6 394.3,535.6 105.7,535.6 -38.7,285.6 105.7,35.6 394.3,35.6 	"/>
</g>
<g id="Template_Diagonal" class="st3">
	<polygon id="XMLID_166_" class="st4" points="500,141.2 500,429.9 250,574.3 0,429.9 0,141.2 250,-3.1 	"/>
</g>
<g id="Final_1" class="st0">
	<polygon id="XMLID_175_" class="st5" points="400,83.5 150,227.8 50,285.6 50,458.8 0,429.9 0,141.2 250,-3.1 300,25.8 50,170.1 
		50,227.8 100,199 350,54.6 	"/>
	<polygon id="XMLID_182_" class="st5" points="250,400.7 500,256.7 500,429.9 250,574.3 200,545.4 250,516.5 450,401.1 450,343.3 
		250,458.8 150,516.5 100,487.7 100,314.5 200,256.7 450,112.4 500,141.2 250,285.6 150,343.3 149.6,458.6 	"/>
	<g id="XMLID_165_">
		<polygon id="XMLID_172_" class="st6" points="150,227.8 50,285.6 50,458.8 0,429.9 0,141.2 50,170.1 50,227.8 100,199 		"/>
		<polygon id="XMLID_174_" class="st6" points="149.6,458.6 250,400.7 250,458.8 150,516.5 100,487.7 100,314.5 200,256.7 
			250,285.6 150,343.3 		"/>
		<polygon id="XMLID_177_" class="st6" points="200,545.4 250,516.5 250,574.3 		"/>
	</g>
</g>
<g id="Final_2" class="st0">
	<path id="XMLID_170_" class="st7" d="M400,83.5L150,227.8L50,285.6v173.2l-40-23.1c-6.2-3.6-10-10.2-10-17.3V152.8
		c0-7.1,3.8-13.7,10-17.3L240,2.7c6.2-3.6,13.8-3.6,20,0l40,23.1L50,170.1v57.7l50-28.9L350,54.6L400,83.5z"/>
</g>
<g id="Final_3">
	<path id="XMLID_164_" class="st8" d="M400,83.5L150,227.8L50,285.6v173.2l-40-23.1c-6.2-3.6-10-10.2-10-17.3V152.8
		c0-7.1,3.8-13.7,10-17.3L240,2.7c6.2-3.6,13.8-3.6,20,0l40,23.1L50,170.1v57.7l50-28.9L350,54.6L400,83.5z"/>
	<path id="XMLID_184_" class="st8" d="M450,227.8v-57.7L250,285.6l-100,57.7l-0.4,115.2L250,400.7l250-144v161.7
		c0,7.2-3.8,13.8-10,17.3L260,568.5c-6.2,3.6-13.8,3.6-20,0l-40-23.1l50-28.9l200-115.5v-57.7L250,458.8l-100,57.7l-50-28.9V314.5
		l100-57.7l200-115.5l50-28.9l40,23.1c6.2,3.6,10,10.2,10,17.3V199L450,227.8z"/>
</g>
</svg>
