<?xml version="1.0" encoding="utf-8"?>
<!-- Generator: Adobe Illustrator 19.0.0, SVG Export Plug-In . SVG Version: 6.00 Build 0)  -->
<svg version="1.1" xmlns="http://www.w3.org/2000/svg" xmlns:xlink="http://www.w3.org/1999/xlink" x="0px" y="0px"
	 viewBox="0 0 577.4 500" style="enable-background:new 0 0 577.4 500;" xml:space="preserve">
<style type="text/css">
	.st0{display:none;}
	.st1{display:inline;}
	.st2{fill:none;stroke:#00A651;stroke-width:0.1;}
	.st3{fill:#FFFFFF;}
	.st4{display:none;opacity:0.3;}
	.st5{display:inline;fill:#00A651;}
	.st6{display:inline;fill:#D13C95;}
	.st7{display:inline;fill:#9D4098;}
	.st8{display:inline;fill:#7752A1;}
	.st9{display:inline;fill:#B057A2;}
</style>
<g id="Guides" class="st0">
	<g id="XMLID_882_" class="st1">
		<line id="XMLID_962_" class="st2" x1="788.7" y1="-350" x2="788.7" y2="850"/>
		<line id="XMLID_961_" class="st2" x1="738.7" y1="-350" x2="738.7" y2="850"/>
		<line id="XMLID_960_" class="st2" x1="738.7" y1="-350" x2="738.7" y2="850"/>
		<line id="XMLID_959_" class="st2" x1="688.7" y1="-350" x2="688.7" y2="850"/>
		<line id="XMLID_958_" class="st2" x1="688.7" y1="-350" x2="688.7" y2="850"/>
		<line id="XMLID_957_" class="st2" x1="638.7" y1="-350" x2="638.7" y2="850"/>
		<line id="XMLID_956_" class="st2" x1="638.7" y1="-350" x2="638.7" y2="850"/>
		<line id="XMLID_955_" class="st2" x1="588.7" y1="-350" x2="588.7" y2="850"/>
		<line id="XMLID_954_" class="st2" x1="588.7" y1="-350" x2="588.7" y2="850"/>
		<line id="XMLID_953_" class="st2" x1="538.7" y1="-350" x2="538.7" y2="850"/>
		<line id="XMLID_952_" class="st2" x1="538.7" y1="-350" x2="538.7" y2="850"/>
		<line id="XMLID_951_" class="st2" x1="488.7" y1="-350" x2="488.7" y2="850"/>
		<line id="XMLID_950_" class="st2" x1="488.7" y1="-350" x2="488.7" y2="850"/>
		<line id="XMLID_949_" class="st2" x1="438.7" y1="-350" x2="438.7" y2="850"/>
		<line id="XMLID_948_" class="st2" x1="438.7" y1="-350" x2="438.7" y2="850"/>
		<line id="XMLID_947_" class="st2" x1="388.7" y1="-350" x2="388.7" y2="850"/>
		<line id="XMLID_946_" class="st2" x1="388.7" y1="-350" x2="388.7" y2="850"/>
		<line id="XMLID_945_" class="st2" x1="338.7" y1="-350" x2="338.7" y2="850"/>
		<line id="XMLID_944_" class="st2" x1="338.7" y1="-350" x2="338.7" y2="850"/>
		<line id="XMLID_943_" class="st2" x1="288.7" y1="-350" x2="288.7" y2="850"/>
		<line id="XMLID_942_" class="st2" x1="288.7" y1="-350" x2="288.7" y2="850"/>
		<line id="XMLID_941_" class="st2" x1="238.7" y1="-350" x2="238.7" y2="850"/>
		<line id="XMLID_940_" class="st2" x1="238.7" y1="-350" x2="238.7" y2="850"/>
		<line id="XMLID_939_" class="st2" x1="188.7" y1="-350" x2="188.7" y2="850"/>
		<line id="XMLID_938_" class="st2" x1="188.7" y1="-350" x2="188.7" y2="850"/>
		<line id="XMLID_937_" class="st2" x1="138.7" y1="-350" x2="138.7" y2="850"/>
		<line id="XMLID_936_" class="st2" x1="138.7" y1="-350" x2="138.7" y2="850"/>
		<line id="XMLID_935_" class="st2" x1="88.7" y1="-350" x2="88.7" y2="850"/>
		<line id="XMLID_934_" class="st2" x1="88.7" y1="-350" x2="88.7" y2="850"/>
		<line id="XMLID_933_" class="st2" x1="38.7" y1="-350" x2="38.7" y2="850"/>
		<line id="XMLID_932_" class="st2" x1="38.7" y1="-350" x2="38.7" y2="850"/>
		<line id="XMLID_931_" class="st2" x1="-11.3" y1="-350" x2="-11.3" y2="850"/>
		<line id="XMLID_930_" class="st2" x1="-11.3" y1="-350" x2="-11.3" y2="850"/>
		<line id="XMLID_929_" class="st2" x1="-61.3" y1="-350" x2="-61.3" y2="850"/>
		<line id="XMLID_928_" class="st2" x1="-61.3" y1="-350" x2="-61.3" y2="850"/>
		<line id="XMLID_927_" class="st2" x1="-111.3" y1="-350" x2="-111.3" y2="850"/>
		<line id="XMLID_926_" class="st2" x1="-111.3" y1="-350" x2="-111.3" y2="850"/>
		<line id="XMLID_925_" class="st2" x1="-161.3" y1="-350" x2="-161.3" y2="850"/>
		<line id="XMLID_924_" class="st2" x1="-161.3" y1="-350" x2="-161.3" y2="850"/>
		<line id="XMLID_923_" class="st2" x1="-211.3" y1="-350" x2="-211.3" y2="850"/>
		<line id="XMLID_922_" class="st2" x1="-311.3" y1="750" x2="888.7" y2="750"/>
		<line id="XMLID_921_" class="st2" x1="-311.3" y1="700" x2="888.7" y2="700"/>
		<line id="XMLID_920_" class="st2" x1="-311.3" y1="700" x2="888.7" y2="700"/>
		<line id="XMLID_919_" class="st2" x1="-311.3" y1="650" x2="888.7" y2="650"/>
		<line id="XMLID_918_" class="st2" x1="-311.3" y1="650" x2="888.7" y2="650"/>
		<line id="XMLID_917_" class="st2" x1="-311.3" y1="600" x2="888.7" y2="600"/>
		<line id="XMLID_916_" class="st2" x1="-311.3" y1="600" x2="888.7" y2="600"/>
		<line id="XMLID_915_" class="st2" x1="-311.3" y1="550" x2="888.7" y2="550"/>
		<line id="XMLID_914_" class="st2" x1="-311.3" y1="550" x2="888.7" y2="550"/>
		<line id="XMLID_913_" class="st2" x1="-311.3" y1="500" x2="888.7" y2="500"/>
		<line id="XMLID_912_" class="st2" x1="-311.3" y1="500" x2="888.7" y2="500"/>
		<line id="XMLID_911_" class="st2" x1="-311.3" y1="450" x2="888.7" y2="450"/>
		<line id="XMLID_910_" class="st2" x1="-311.3" y1="450" x2="888.7" y2="450"/>
		<line id="XMLID_909_" class="st2" x1="-311.3" y1="400" x2="888.7" y2="400"/>
		<line id="XMLID_908_" class="st2" x1="-311.3" y1="400" x2="888.7" y2="400"/>
		<line id="XMLID_907_" class="st2" x1="-311.3" y1="350" x2="888.7" y2="350"/>
		<line id="XMLID_906_" class="st2" x1="-311.3" y1="350" x2="888.7" y2="350"/>
		<line id="XMLID_905_" class="st2" x1="-311.3" y1="300" x2="888.7" y2="300"/>
		<line id="XMLID_904_" class="st2" x1="-311.3" y1="300" x2="888.7" y2="300"/>
		<line id="XMLID_903_" class="st2" x1="-311.3" y1="250" x2="888.7" y2="250"/>
		<line id="XMLID_902_" class="st2" x1="-311.3" y1="250" x2="888.7" y2="250"/>
		<line id="XMLID_901_" class="st2" x1="-311.3" y1="200" x2="888.7" y2="200"/>
		<line id="XMLID_900_" class="st2" x1="-311.3" y1="200" x2="888.7" y2="200"/>
		<line id="XMLID_899_" class="st2" x1="-311.3" y1="150" x2="888.7" y2="150"/>
		<line id="XMLID_898_" class="st2" x1="-311.3" y1="150" x2="888.7" y2="150"/>
		<line id="XMLID_897_" class="st2" x1="-311.3" y1="100" x2="888.7" y2="100"/>
		<line id="XMLID_896_" class="st2" x1="-311.3" y1="100" x2="888.7" y2="100"/>
		<line id="XMLID_895_" class="st2" x1="-311.3" y1="50" x2="888.7" y2="50"/>
		<line id="XMLID_894_" class="st2" x1="-311.3" y1="50" x2="888.7" y2="50"/>
		<line id="XMLID_893_" class="st2" x1="-311.3" y1="0" x2="888.7" y2="0"/>
		<line id="XMLID_892_" class="st2" x1="-311.3" y1="0" x2="888.7" y2="0"/>
		<line id="XMLID_891_" class="st2" x1="-311.3" y1="-50" x2="888.7" y2="-50"/>
		<line id="XMLID_890_" class="st2" x1="-311.3" y1="-50" x2="888.7" y2="-50"/>
		<line id="XMLID_889_" class="st2" x1="-311.3" y1="-100" x2="888.7" y2="-100"/>
		<line id="XMLID_888_" class="st2" x1="-311.3" y1="-100" x2="888.7" y2="-100"/>
		<line id="XMLID_887_" class="st2" x1="-311.3" y1="-150" x2="888.7" y2="-150"/>
		<line id="XMLID_886_" class="st2" x1="-311.3" y1="-150" x2="888.7" y2="-150"/>
		<line id="XMLID_885_" class="st2" x1="-311.3" y1="-200" x2="888.7" y2="-200"/>
		<line id="XMLID_884_" class="st2" x1="-311.3" y1="-200" x2="888.7" y2="-200"/>
		<line id="XMLID_883_" class="st2" x1="-311.3" y1="-250" x2="888.7" y2="-250"/>
	</g>
	<g id="XMLID_1_" class="st1">
		<line id="XMLID_81_" class="st2" x1="19.1" y1="-483" x2="1058.3" y2="117"/>
		<line id="XMLID_80_" class="st2" x1="-5.9" y1="-439.7" x2="1033.3" y2="160.3"/>
		<line id="XMLID_79_" class="st2" x1="-5.9" y1="-439.7" x2="1033.3" y2="160.3"/>
		<line id="XMLID_78_" class="st2" x1="-30.9" y1="-396.4" x2="1008.3" y2="203.6"/>
		<line id="XMLID_77_" class="st2" x1="-30.9" y1="-396.4" x2="1008.3" y2="203.6"/>
		<line id="XMLID_76_" class="st2" x1="-55.9" y1="-353.1" x2="983.3" y2="246.9"/>
		<line id="XMLID_75_" class="st2" x1="-55.9" y1="-353.1" x2="983.3" y2="246.9"/>
		<line id="XMLID_74_" class="st2" x1="-80.9" y1="-309.8" x2="958.3" y2="290.2"/>
		<line id="XMLID_73_" class="st2" x1="-80.9" y1="-309.8" x2="958.3" y2="290.2"/>
		<line id="XMLID_72_" class="st2" x1="-105.9" y1="-266.5" x2="933.3" y2="333.5"/>
		<line id="XMLID_71_" class="st2" x1="-105.9" y1="-266.5" x2="933.3" y2="333.5"/>
		<line id="XMLID_70_" class="st2" x1="-130.9" y1="-223.2" x2="908.3" y2="376.8"/>
		<line id="XMLID_69_" class="st2" x1="-130.9" y1="-223.2" x2="908.3" y2="376.8"/>
		<line id="XMLID_68_" class="st2" x1="-155.9" y1="-179.9" x2="883.3" y2="420.1"/>
		<line id="XMLID_67_" class="st2" x1="-155.9" y1="-179.9" x2="883.3" y2="420.1"/>
		<line id="XMLID_66_" class="st2" x1="-180.9" y1="-136.6" x2="858.3" y2="463.4"/>
		<line id="XMLID_65_" class="st2" x1="-180.9" y1="-136.6" x2="858.3" y2="463.4"/>
		<line id="XMLID_64_" class="st2" x1="-205.9" y1="-93.3" x2="833.3" y2="506.7"/>
		<line id="XMLID_63_" class="st2" x1="-205.9" y1="-93.3" x2="833.3" y2="506.7"/>
		<line id="XMLID_62_" class="st2" x1="-230.9" y1="-50" x2="808.3" y2="550"/>
		<line id="XMLID_61_" class="st2" x1="-230.9" y1="-50" x2="808.3" y2="550"/>
		<line id="XMLID_60_" class="st2" x1="-255.9" y1="-6.7" x2="783.3" y2="593.3"/>
		<line id="XMLID_59_" class="st2" x1="-255.9" y1="-6.7" x2="783.3" y2="593.3"/>
		<line id="XMLID_58_" class="st2" x1="-280.9" y1="36.6" x2="758.3" y2="636.6"/>
		<line id="XMLID_57_" class="st2" x1="-280.9" y1="36.6" x2="758.3" y2="636.6"/>
		<line id="XMLID_56_" class="st2" x1="-305.9" y1="79.9" x2="733.3" y2="679.9"/>
		<line id="XMLID_55_" class="st2" x1="-305.9" y1="79.9" x2="733.3" y2="679.9"/>
		<line id="XMLID_54_" class="st2" x1="-330.9" y1="123.2" x2="708.3" y2="723.2"/>
		<line id="XMLID_53_" class="st2" x1="-330.9" y1="123.2" x2="708.3" y2="723.2"/>
		<line id="XMLID_52_" class="st2" x1="-355.9" y1="166.5" x2="683.3" y2="766.5"/>
		<line id="XMLID_51_" class="st2" x1="-355.9" y1="166.5" x2="683.3" y2="766.5"/>
		<line id="XMLID_50_" class="st2" x1="-380.9" y1="209.8" x2="658.3" y2="809.8"/>
		<line id="XMLID_49_" class="st2" x1="-380.9" y1="209.8" x2="658.3" y2="809.8"/>
		<line id="XMLID_48_" class="st2" x1="-405.9" y1="253.1" x2="633.3" y2="853.1"/>
		<line id="XMLID_47_" class="st2" x1="-405.9" y1="253.1" x2="633.3" y2="853.1"/>
		<line id="XMLID_46_" class="st2" x1="-430.9" y1="296.4" x2="608.3" y2="896.4"/>
		<line id="XMLID_45_" class="st2" x1="-430.9" y1="296.4" x2="608.3" y2="896.4"/>
		<line id="XMLID_44_" class="st2" x1="-455.9" y1="339.7" x2="583.3" y2="939.7"/>
		<line id="XMLID_43_" class="st2" x1="-455.9" y1="339.7" x2="583.3" y2="939.7"/>
		<line id="XMLID_42_" class="st2" x1="-480.9" y1="383" x2="558.3" y2="983"/>
		<line id="XMLID_41_" class="st2" x1="421.7" y1="1019.6" x2="1021.7" y2="-19.6"/>
		<line id="XMLID_40_" class="st2" x1="378.4" y1="994.6" x2="978.4" y2="-44.6"/>
		<line id="XMLID_39_" class="st2" x1="378.4" y1="994.6" x2="978.4" y2="-44.6"/>
		<line id="XMLID_38_" class="st2" x1="335.1" y1="969.6" x2="935.1" y2="-69.6"/>
		<line id="XMLID_37_" class="st2" x1="335.1" y1="969.6" x2="935.1" y2="-69.6"/>
		<line id="XMLID_36_" class="st2" x1="291.8" y1="944.6" x2="891.8" y2="-94.6"/>
		<line id="XMLID_35_" class="st2" x1="291.8" y1="944.6" x2="891.8" y2="-94.6"/>
		<line id="XMLID_34_" class="st2" x1="248.5" y1="919.6" x2="848.5" y2="-119.6"/>
		<line id="XMLID_33_" class="st2" x1="248.5" y1="919.6" x2="848.5" y2="-119.6"/>
		<line id="XMLID_32_" class="st2" x1="205.2" y1="894.6" x2="805.2" y2="-144.6"/>
		<line id="XMLID_31_" class="st2" x1="205.2" y1="894.6" x2="805.2" y2="-144.6"/>
		<line id="XMLID_30_" class="st2" x1="161.9" y1="869.6" x2="761.9" y2="-169.6"/>
		<line id="XMLID_29_" class="st2" x1="161.9" y1="869.6" x2="761.9" y2="-169.6"/>
		<line id="XMLID_28_" class="st2" x1="118.6" y1="844.6" x2="718.6" y2="-194.6"/>
		<line id="XMLID_27_" class="st2" x1="118.6" y1="844.6" x2="718.6" y2="-194.6"/>
		<line id="XMLID_26_" class="st2" x1="75.3" y1="819.6" x2="675.3" y2="-219.6"/>
		<line id="XMLID_25_" class="st2" x1="75.3" y1="819.6" x2="675.3" y2="-219.6"/>
		<line id="XMLID_24_" class="st2" x1="32" y1="794.6" x2="632" y2="-244.6"/>
		<line id="XMLID_23_" class="st2" x1="32" y1="794.6" x2="632" y2="-244.6"/>
		<line id="XMLID_22_" class="st2" x1="-11.3" y1="769.6" x2="588.7" y2="-269.6"/>
		<line id="XMLID_21_" class="st2" x1="-11.3" y1="769.6" x2="588.7" y2="-269.6"/>
		<line id="XMLID_20_" class="st2" x1="-54.6" y1="744.6" x2="545.4" y2="-294.6"/>
		<line id="XMLID_19_" class="st2" x1="-54.6" y1="744.6" x2="545.4" y2="-294.6"/>
		<line id="XMLID_18_" class="st2" x1="-97.9" y1="719.6" x2="502.1" y2="-319.6"/>
		<line id="XMLID_17_" class="st2" x1="-97.9" y1="719.6" x2="502.1" y2="-319.6"/>
		<line id="XMLID_16_" class="st2" x1="-141.2" y1="694.6" x2="458.8" y2="-344.6"/>
		<line id="XMLID_15_" class="st2" x1="-141.2" y1="694.6" x2="458.8" y2="-344.6"/>
		<line id="XMLID_14_" class="st2" x1="-184.5" y1="669.6" x2="415.5" y2="-369.6"/>
		<line id="XMLID_13_" class="st2" x1="-184.5" y1="669.6" x2="415.5" y2="-369.6"/>
		<line id="XMLID_12_" class="st2" x1="-227.8" y1="644.6" x2="372.2" y2="-394.6"/>
		<line id="XMLID_11_" class="st2" x1="-227.8" y1="644.6" x2="372.2" y2="-394.6"/>
		<line id="XMLID_10_" class="st2" x1="-271.1" y1="619.6" x2="328.9" y2="-419.6"/>
		<line id="XMLID_9_" class="st2" x1="-271.1" y1="619.6" x2="328.9" y2="-419.6"/>
		<line id="XMLID_8_" class="st2" x1="-314.4" y1="594.6" x2="285.6" y2="-444.6"/>
		<line id="XMLID_7_" class="st2" x1="-314.4" y1="594.6" x2="285.6" y2="-444.6"/>
		<line id="XMLID_6_" class="st2" x1="-357.7" y1="569.6" x2="242.3" y2="-469.6"/>
		<line id="XMLID_5_" class="st2" x1="-357.7" y1="569.6" x2="242.3" y2="-469.6"/>
		<line id="XMLID_4_" class="st2" x1="-401" y1="544.6" x2="199" y2="-494.6"/>
		<line id="XMLID_3_" class="st2" x1="-401" y1="544.6" x2="199" y2="-494.6"/>
		<line id="XMLID_2_" class="st2" x1="-444.3" y1="519.6" x2="155.7" y2="-519.6"/>
	</g>
	<g id="XMLID_82_" class="st1">
		<line id="XMLID_162_" class="st2" x1="-480.9" y1="117" x2="558.3" y2="-483"/>
		<line id="XMLID_161_" class="st2" x1="-455.9" y1="160.3" x2="583.3" y2="-439.7"/>
		<line id="XMLID_160_" class="st2" x1="-455.9" y1="160.3" x2="583.3" y2="-439.7"/>
		<line id="XMLID_159_" class="st2" x1="-430.9" y1="203.6" x2="608.3" y2="-396.4"/>
		<line id="XMLID_158_" class="st2" x1="-430.9" y1="203.6" x2="608.3" y2="-396.4"/>
		<line id="XMLID_157_" class="st2" x1="-405.9" y1="246.9" x2="633.3" y2="-353.1"/>
		<line id="XMLID_156_" class="st2" x1="-405.9" y1="246.9" x2="633.3" y2="-353.1"/>
		<line id="XMLID_155_" class="st2" x1="-380.9" y1="290.2" x2="658.3" y2="-309.8"/>
		<line id="XMLID_154_" class="st2" x1="-380.9" y1="290.2" x2="658.3" y2="-309.8"/>
		<line id="XMLID_153_" class="st2" x1="-355.9" y1="333.5" x2="683.3" y2="-266.5"/>
		<line id="XMLID_152_" class="st2" x1="-355.9" y1="333.5" x2="683.3" y2="-266.5"/>
		<line id="XMLID_151_" class="st2" x1="-330.9" y1="376.8" x2="708.3" y2="-223.2"/>
		<line id="XMLID_150_" class="st2" x1="-330.9" y1="376.8" x2="708.3" y2="-223.2"/>
		<line id="XMLID_149_" class="st2" x1="-305.9" y1="420.1" x2="733.3" y2="-179.9"/>
		<line id="XMLID_148_" class="st2" x1="-305.9" y1="420.1" x2="733.3" y2="-179.9"/>
		<line id="XMLID_147_" class="st2" x1="-280.9" y1="463.4" x2="758.3" y2="-136.6"/>
		<line id="XMLID_146_" class="st2" x1="-280.9" y1="463.4" x2="758.3" y2="-136.6"/>
		<line id="XMLID_145_" class="st2" x1="-255.9" y1="506.7" x2="783.3" y2="-93.3"/>
		<line id="XMLID_144_" class="st2" x1="-255.9" y1="506.7" x2="783.3" y2="-93.3"/>
		<line id="XMLID_143_" class="st2" x1="-230.9" y1="550" x2="808.3" y2="-50"/>
		<line id="XMLID_142_" class="st2" x1="-230.9" y1="550" x2="808.3" y2="-50"/>
		<line id="XMLID_141_" class="st2" x1="-205.9" y1="593.3" x2="833.3" y2="-6.7"/>
		<line id="XMLID_140_" class="st2" x1="-205.9" y1="593.3" x2="833.3" y2="-6.7"/>
		<line id="XMLID_139_" class="st2" x1="-180.9" y1="636.6" x2="858.3" y2="36.6"/>
		<line id="XMLID_138_" class="st2" x1="-180.9" y1="636.6" x2="858.3" y2="36.6"/>
		<line id="XMLID_137_" class="st2" x1="-155.9" y1="679.9" x2="883.3" y2="79.9"/>
		<line id="XMLID_136_" class="st2" x1="-155.9" y1="679.9" x2="883.3" y2="79.9"/>
		<line id="XMLID_135_" class="st2" x1="-130.9" y1="723.2" x2="908.3" y2="123.2"/>
		<line id="XMLID_134_" class="st2" x1="-130.9" y1="723.2" x2="908.3" y2="123.2"/>
		<line id="XMLID_133_" class="st2" x1="-105.9" y1="766.5" x2="933.3" y2="166.5"/>
		<line id="XMLID_132_" class="st2" x1="-105.9" y1="766.5" x2="933.3" y2="166.5"/>
		<line id="XMLID_131_" class="st2" x1="-80.9" y1="809.8" x2="958.3" y2="209.8"/>
		<line id="XMLID_130_" class="st2" x1="-80.9" y1="809.8" x2="958.3" y2="209.8"/>
		<line id="XMLID_129_" class="st2" x1="-55.9" y1="853.1" x2="983.3" y2="253.1"/>
		<line id="XMLID_128_" class="st2" x1="-55.9" y1="853.1" x2="983.3" y2="253.1"/>
		<line id="XMLID_127_" class="st2" x1="-30.9" y1="896.4" x2="1008.3" y2="296.4"/>
		<line id="XMLID_126_" class="st2" x1="-30.9" y1="896.4" x2="1008.3" y2="296.4"/>
		<line id="XMLID_125_" class="st2" x1="-5.9" y1="939.7" x2="1033.3" y2="339.7"/>
		<line id="XMLID_124_" class="st2" x1="-5.9" y1="939.7" x2="1033.3" y2="339.7"/>
		<line id="XMLID_123_" class="st2" x1="19.1" y1="983" x2="1058.3" y2="383"/>
		<line id="XMLID_122_" class="st2" x1="1021.7" y1="519.6" x2="421.7" y2="-519.6"/>
		<line id="XMLID_121_" class="st2" x1="978.4" y1="544.6" x2="378.4" y2="-494.6"/>
		<line id="XMLID_120_" class="st2" x1="978.4" y1="544.6" x2="378.4" y2="-494.6"/>
		<line id="XMLID_119_" class="st2" x1="935.1" y1="569.6" x2="335.1" y2="-469.6"/>
		<line id="XMLID_118_" class="st2" x1="935.1" y1="569.6" x2="335.1" y2="-469.6"/>
		<line id="XMLID_117_" class="st2" x1="891.8" y1="594.6" x2="291.8" y2="-444.6"/>
		<line id="XMLID_116_" class="st2" x1="891.8" y1="594.6" x2="291.8" y2="-444.6"/>
		<line id="XMLID_115_" class="st2" x1="848.5" y1="619.6" x2="248.5" y2="-419.6"/>
		<line id="XMLID_114_" class="st2" x1="848.5" y1="619.6" x2="248.5" y2="-419.6"/>
		<line id="XMLID_113_" class="st2" x1="805.2" y1="644.6" x2="205.2" y2="-394.6"/>
		<line id="XMLID_112_" class="st2" x1="805.2" y1="644.6" x2="205.2" y2="-394.6"/>
		<line id="XMLID_111_" class="st2" x1="761.9" y1="669.6" x2="161.9" y2="-369.6"/>
		<line id="XMLID_110_" class="st2" x1="761.9" y1="669.6" x2="161.9" y2="-369.6"/>
		<line id="XMLID_109_" class="st2" x1="718.6" y1="694.6" x2="118.6" y2="-344.6"/>
		<line id="XMLID_108_" class="st2" x1="718.6" y1="694.6" x2="118.6" y2="-344.6"/>
		<line id="XMLID_107_" class="st2" x1="675.3" y1="719.6" x2="75.3" y2="-319.6"/>
		<line id="XMLID_106_" class="st2" x1="675.3" y1="719.6" x2="75.3" y2="-319.6"/>
		<line id="XMLID_105_" class="st2" x1="632" y1="744.6" x2="32" y2="-294.6"/>
		<line id="XMLID_104_" class="st2" x1="632" y1="744.6" x2="32" y2="-294.6"/>
		<line id="XMLID_103_" class="st2" x1="588.7" y1="769.6" x2="-11.3" y2="-269.6"/>
		<line id="XMLID_102_" class="st2" x1="588.7" y1="769.6" x2="-11.3" y2="-269.6"/>
		<line id="XMLID_101_" class="st2" x1="545.4" y1="794.6" x2="-54.6" y2="-244.6"/>
		<line id="XMLID_100_" class="st2" x1="545.4" y1="794.6" x2="-54.6" y2="-244.6"/>
		<line id="XMLID_99_" class="st2" x1="502.1" y1="819.6" x2="-97.9" y2="-219.6"/>
		<line id="XMLID_98_" class="st2" x1="502.1" y1="819.6" x2="-97.9" y2="-219.6"/>
		<line id="XMLID_97_" class="st2" x1="458.8" y1="844.6" x2="-141.2" y2="-194.6"/>
		<line id="XMLID_96_" class="st2" x1="458.8" y1="844.6" x2="-141.2" y2="-194.6"/>
		<line id="XMLID_95_" class="st2" x1="415.5" y1="869.6" x2="-184.5" y2="-169.6"/>
		<line id="XMLID_94_" class="st2" x1="415.5" y1="869.6" x2="-184.5" y2="-169.6"/>
		<line id="XMLID_93_" class="st2" x1="372.2" y1="894.6" x2="-227.8" y2="-144.6"/>
		<line id="XMLID_92_" class="st2" x1="372.2" y1="894.6" x2="-227.8" y2="-144.6"/>
		<line id="XMLID_91_" class="st2" x1="328.9" y1="919.6" x2="-271.1" y2="-119.6"/>
		<line id="XMLID_90_" class="st2" x1="328.9" y1="919.6" x2="-271.1" y2="-119.6"/>
		<line id="XMLID_89_" class="st2" x1="285.6" y1="944.6" x2="-314.4" y2="-94.6"/>
		<line id="XMLID_88_" class="st2" x1="285.6" y1="944.6" x2="-314.4" y2="-94.6"/>
		<line id="XMLID_87_" class="st2" x1="242.3" y1="969.6" x2="-357.7" y2="-69.6"/>
		<line id="XMLID_86_" class="st2" x1="242.3" y1="969.6" x2="-357.7" y2="-69.6"/>
		<line id="XMLID_85_" class="st2" x1="199" y1="994.6" x2="-401" y2="-44.6"/>
		<line id="XMLID_84_" class="st2" x1="199" y1="994.6" x2="-401" y2="-44.6"/>
		<line id="XMLID_83_" class="st2" x1="155.7" y1="1019.6" x2="-444.3" y2="-19.6"/>
	</g>
</g>
<g id="Template_Horizontal">
	<polygon id="XMLID_180_" class="st3" points="577.4,250 433,500 144.3,500 0,250 144.3,0 433,0 	"/>
</g>
<g id="Template_Diagonal" class="st4">
	<polygon id="XMLID_166_" class="st5" points="538.7,105.7 538.7,394.3 288.7,538.7 38.7,394.3 38.7,105.7 288.7,-38.7 	"/>
</g>
<g id="Final_1" class="st0">
	<polygon id="XMLID_175_" class="st6" points="438.7,47.9 188.7,192.3 88.7,250 88.7,423.2 38.7,394.3 38.7,105.7 288.7,-38.7
		338.7,-9.8 88.7,134.5 88.7,192.3 138.7,163.4 388.7,19.1 	"/>
	<polygon id="XMLID_182_" class="st6" points="288.7,365.1 538.7,221.1 538.7,394.3 288.7,538.7 238.7,509.8 288.7,480.9
		488.7,365.5 488.7,307.7 288.7,423.2 188.7,480.9 138.7,452.1 138.7,278.9 238.7,221.1 488.7,76.8 538.7,105.7 288.7,250
		188.7,307.7 188.3,423 	"/>
	<g id="XMLID_165_">
		<polygon id="XMLID_172_" class="st7" points="188.7,192.3 88.7,250 88.7,423.2 38.7,394.3 38.7,105.7 88.7,134.5 88.7,192.3
			138.7,163.4 		"/>
		<polygon id="XMLID_174_" class="st7" points="188.3,423 288.7,365.1 288.7,423.2 188.7,480.9 138.7,452.1 138.7,278.9
			238.7,221.1 288.7,250 188.7,307.7 		"/>
		<polygon id="XMLID_177_" class="st7" points="238.7,509.8 288.7,480.9 288.7,538.7 		"/>
	</g>
</g>
<g id="Final_2" class="st0">
	<path id="XMLID_170_" class="st8" d="M438.7,47.9l-250,144.3L88.7,250v173.2l-40-23.1c-6.2-3.6-10-10.2-10-17.3V117.2
		c0-7.1,3.8-13.7,10-17.3l230-132.8c6.2-3.6,13.8-3.6,20,0l40,23.1l-250,144.3v57.7l50-28.9l250-144.3L438.7,47.9z"/>
</g>
<g id="Final_3" class="st0">
	<path id="XMLID_164_" class="st9" d="M438.7,47.9l-250,144.3L88.7,250v173.2l-40-23.1c-6.2-3.6-10-10.2-10-17.3V117.2
		c0-7.1,3.8-13.7,10-17.3l230-132.8c6.2-3.6,13.8-3.6,20,0l40,23.1l-250,144.3v57.7l50-28.9l250-144.3L438.7,47.9z"/>
	<path id="XMLID_184_" class="st9" d="M488.7,192.3v-57.7L288.7,250l-100,57.7L188.3,423l100.4-57.8l250-144v161.7
		c0,7.2-3.8,13.8-10,17.3l-230,132.8c-6.2,3.6-13.8,3.6-20,0l-40-23.1l50-28.9l200-115.5v-57.7l-200,115.5l-100,57.7l-50-28.9V278.9
		l100-57.7l200-115.5l50-28.9l40,23.1c6.2,3.6,10,10.2,10,17.3v46.2L488.7,192.3z"/>
</g>
</svg>
